<?xml version="1.0" standalone="no"?>
<!DOCTYPE svg PUBLIC "-//W3C//DTD SVG 20010904//EN"
 "http://www.w3.org/TR/2001/REC-SVG-20010904/DTD/svg10.dtd">
<svg version="1.0" xmlns="http://www.w3.org/2000/svg"
 width="384.000000pt" height="384.000000pt" viewBox="0 0 384.000000 384.000000"
 preserveAspectRatio="xMidYMid meet">

<g transform="translate(0.000000,384.000000) scale(0.100000,-0.100000)"
fill="#000000" stroke="none">
<path d="M1870 3750 c-19 -10 -80 -64 -134 -119 -141 -142 -149 -144 -352 -65
-127 49 -187 55 -236 27 -40 -24 -60 -59 -103 -188 -68 -201 -76 -207 -291
-215 -164 -7 -196 -16 -238 -73 -20 -27 -21 -39 -18 -205 3 -237 7 -231 -182
-327 -153 -78 -182 -105 -192 -176 -6 -47 -4 -52 96 -233 69 -126 58 -181 -66
-310 -92 -97 -107 -126 -102 -192 6 -65 25 -88 164 -193 151 -114 156 -132 94
-337 -47 -156 -48 -191 -5 -242 30 -36 76 -55 195 -82 104 -23 163 -51 192
-90 12 -17 25 -71 39 -160 25 -156 41 -203 82 -232 42 -30 107 -33 232 -9 61
12 126 21 145 21 68 0 108 -39 209 -203 52 -84 83 -113 133 -128 50 -14 97 5
204 83 55 39 119 79 144 89 43 16 47 16 93 -1 26 -10 88 -48 138 -85 106 -79
149 -97 204 -85 59 13 82 36 151 150 35 58 81 122 103 143 47 43 76 46 206 21
136 -27 215 -28 252 -5 54 34 65 61 85 218 11 93 25 158 36 177 26 45 82 71
211 100 62 14 128 35 145 45 74 46 84 128 37 281 -45 145 -47 162 -21 215 18
38 45 63 137 132 123 91 153 127 153 185 0 56 -11 76 -98 180 -108 129 -114
140 -115 197 -1 38 7 65 33 113 103 195 100 189 100 250 0 83 -30 113 -180
178 -80 35 -125 61 -148 85 l-33 36 2 177 c3 197 -2 220 -62 263 -28 20 -53
24 -188 34 -86 6 -166 16 -177 23 -43 23 -72 72 -113 192 -49 144 -61 165
-114 192 -53 26 -108 20 -202 -22 -38 -18 -89 -41 -112 -51 -92 -42 -130 -26
-268 111 -60 60 -123 114 -138 119 -42 16 -87 13 -127 -9z m297 -561 c169 -32
313 -86 443 -166 232 -144 387 -314 508 -558 219 -441 167 -970 -134 -1376
-183 -247 -449 -417 -774 -496 -91 -22 -128 -26 -280 -26 -148 -1 -190 3 -270
22 -274 64 -469 171 -660 361 -116 114 -183 207 -255 349 -95 188 -135 363
-135 591 0 201 23 323 94 504 86 218 272 445 486 592 60 42 230 126 310 154
203 70 458 89 667 49z"/>
<path d="M1770 3075 c-463 -59 -853 -396 -985 -850 -68 -235 -57 -534 27 -755
142 -370 449 -639 845 -741 75 -19 114 -23 263 -23 107 0 198 4 235 12 396 86
717 346 872 707 157 366 116 801 -107 1130 -123 180 -269 309 -457 404 -127
63 -234 95 -392 116 -131 17 -169 17 -301 0z m783 -541 c40 -9 83 -22 97 -29
24 -13 24 -13 -20 -25 -25 -6 -52 -13 -61 -16 -43 -12 -98 -67 -146 -145 -77
-126 -119 -159 -203 -159 -47 0 -88 15 -117 42 l-23 21 -23 -21 c-13 -12 -33
-40 -45 -61 l-23 -40 43 -19 c80 -35 134 -98 159 -184 7 -26 5 -28 -46 -43
-75 -21 -80 -20 -98 25 -22 56 -67 82 -135 77 -107 -8 -146 -85 -141 -280 5
-151 21 -190 92 -226 83 -41 161 -2 191 97 15 52 15 52 93 21 49 -20 52 -23
46 -48 -10 -41 -49 -113 -80 -147 -34 -38 -71 -57 -139 -73 -46 -11 -60 -10
-122 8 -86 26 -144 78 -188 166 -28 59 -29 63 -29 220 0 151 1 163 26 215 50
108 115 161 219 182 58 12 64 16 72 43 11 42 1 65 -27 65 -14 0 -34 13 -49 31
-23 27 -26 39 -25 103 1 55 -4 83 -20 116 -11 24 -19 45 -17 48 9 8 93 -36
129 -68 21 -18 49 -53 64 -77 24 -41 25 -48 14 -85 -8 -25 -20 -42 -32 -45
-19 -5 -29 -53 -10 -53 4 0 46 35 92 78 100 93 154 131 254 179 70 33 98 51
58 36 -76 -27 -190 -89 -253 -136 l-75 -57 -3 59 c-5 96 37 151 150 198 68 28
241 32 351 7z m200 -472 c84 -45 135 -119 162 -234 54 -229 -39 -458 -208
-514 -154 -52 -305 14 -379 164 -31 63 -33 73 -36 197 -4 153 8 210 66 295 42
62 112 110 175 121 71 12 167 0 220 -29z m-1229 12 c8 -20 8 -72 0 -101 -6
-23 -8 -23 -180 -23 l-174 0 0 -80 0 -80 163 -2 162 -3 3 -67 3 -68 -166 0
-165 0 0 -105 0 -105 185 0 185 0 0 -65 0 -65 -252 2 -253 3 -3 375 c-1 206 0
381 3 387 3 10 61 13 244 13 209 0 240 -2 245 -16z"/>
<path d="M2535 1944 c-47 -24 -62 -42 -85 -100 -19 -47 -22 -68 -18 -161 3
-86 8 -117 26 -149 60 -116 183 -136 266 -44 44 49 60 103 60 210 0 136 -39
220 -117 249 -40 16 -97 13 -132 -5z"/>
</g>
</svg>
